<?xml version="1.0" encoding="UTF-8" standalone="no"?>
<!-- Created with Inkscape (http://www.inkscape.org/) -->

<svg
   version="1.1"
   id="svg2"
   width="1440"
   height="1440"
   viewBox="0 0 1440 1440"
   sodipodi:docname="djaniga_logos_export.ai"
   xmlns:inkscape="http://www.inkscape.org/namespaces/inkscape"
   xmlns:sodipodi="http://sodipodi.sourceforge.net/DTD/sodipodi-0.dtd"
   xmlns="http://www.w3.org/2000/svg"
   xmlns:svg="http://www.w3.org/2000/svg">
  <defs
     id="defs6">
    <clipPath
       clipPathUnits="userSpaceOnUse"
       id="clipPath16">
      <path
         d="M 0,1080 H 1080 V 0 H 0 Z"
         id="path14" />
    </clipPath>
  </defs>
  <sodipodi:namedview
     id="namedview4"
     pagecolor="#ffffff"
     bordercolor="#000000"
     borderopacity="0.25"
     inkscape:showpageshadow="2"
     inkscape:pageopacity="0.0"
     inkscape:pagecheckerboard="0"
     inkscape:deskcolor="#d1d1d1" />
  <g
     id="g8"
     inkscape:groupmode="layer"
     inkscape:label="djaniga_logos_export"
     transform="matrix(1.3333333,0,0,-1.3333333,0,1440)">
    <g
       id="g10">
      <g
         id="g12"
         clip-path="url(#clipPath16)">
        <g
           id="g18"
           transform="translate(666.5977,546.3984)">
          <path
             d="m 0,0 c 24.488,0 27.99,16.313 27.99,16.313 0,0 -7.332,1.445 -7.332,16.531 0,24.886 44.453,90.42 44.453,113.469 0,16.222 -10.49,22.152 -22.892,22.152 H 25.031 C 25.031,150.738 -23.795,63.503 -23.795,25.182 -23.795,14.592 -15.887,0 0,0"
             style="fill:#000000;fill-opacity:1;fill-rule:nonzero;stroke:none"
             id="path20" />
        </g>
        <g
           id="g22"
           transform="translate(422.5557,546.3984)">
          <path
             d="M 0,0 C 32.134,0 78.201,125.073 95.333,125.073 98.14,125.073 63.245,58.401 63.245,20.08 63.245,9.486 70.003,0 85.894,0 c 35.321,0 78.199,125.073 95.335,125.073 2.805,0 -31.896,-61.57 -31.896,-99.891 0,-10.59 7.906,-25.182 23.797,-25.182 24.484,0 27.988,16.313 27.988,16.313 0,0 -7.332,1.445 -7.332,16.531 0,24.886 44.457,90.42 44.457,113.469 0,16.15 -10.402,22.094 -22.734,22.147 C 175.171,168.243 113.892,42.15 109.642,42.15 c -6.539,0 40.556,81.114 40.556,104.163 0,16.222 -10.49,22.152 -22.892,22.152 C 86.967,168.465 25.588,42.15 21.333,42.15 c -6.539,0 40.559,81.114 40.559,104.163 0,23.048 -23.564,22.152 -37.553,22.152 0,-34.08 -48.328,-110.064 -48.328,-148.385 C -23.989,9.486 -15.892,0 0,0"
             style="fill:#000000;fill-opacity:1;fill-rule:nonzero;stroke:none"
             id="path24" />
        </g>
        <g
           id="g26"
           transform="translate(637.9004,714.8633)">
          <path
             d="M 0,0 C 0.057,0 0.109,-0.005 0.164,-0.005 0.199,-0.005 0.234,0 0.27,0 Z"
             style="fill:#000000;fill-opacity:1;fill-rule:nonzero;stroke:none"
             id="path28" />
        </g>
        <g
           id="g30"
           transform="translate(760.6309,714.8633)">
          <path
             d="m 0,0 c 0,-34.08 -48.328,-110.063 -48.328,-148.385 0,-10.594 5.953,-20.08 21.844,-20.08 32.134,0 78.197,125.073 95.334,125.073 2.806,0 -31.897,-61.57 -31.897,-99.891 0,-10.59 7.906,-25.182 23.799,-25.182 24.482,0 27.986,16.313 27.986,16.313 0,0 -7.332,1.445 -7.332,16.531 0,24.887 44.457,90.42 44.457,113.469 C 125.863,-5.93 115.369,0 102.967,0 62.629,0 1.25,-126.314 -3.004,-126.314 c -6.539,0 40.559,81.113 40.559,104.162 C 37.555,0.896 13.99,0 0,0"
             style="fill:#000000;fill-opacity:1;fill-rule:nonzero;stroke:none"
             id="path32" />
        </g>
        <g
           id="g34"
           transform="translate(329.6406,388.1494)">
          <path
             d="m 0,0 c -2.124,0 -4.643,0.92 -4.643,5.458 0,19.574 54.454,117.407 75.634,117.407 C 103.704,122.865 21.44,0 0,0 m 276.256,142.703 c -40.336,0 -101.717,-126.31 -105.968,-126.31 -6.542,0 40.556,81.11 40.556,104.161 0,23.047 -23.561,22.149 -37.551,22.149 0,0 -77.404,-126.77 -81.654,-126.77 -6.543,0 40.554,81.114 40.554,104.161 0,23.047 -23.56,22.149 -37.549,22.149 0,-5.662 -1.355,-12.5 -3.581,-20.112 -3.214,13.311 -11.047,20.576 -29.95,20.576 -48.193,0 -100.584,-81.489 -100.584,-139.526 0,-11.479 11.004,-28.938 34.828,-28.938 15.821,0 39.295,27.752 59.291,56.36 -4.953,-13.89 -8.333,-26.634 -8.333,-36.744 0,-10.593 8.099,-20.076 23.99,-20.076 20.943,0 60.613,66.238 85.711,112.382 -13.875,-32.761 -31.055,-68.998 -31.055,-91.846 0,-10.593 5.957,-20.076 21.844,-20.076 32.134,0 78.199,125.07 95.336,125.07 2.804,0 -31.899,-61.568 -31.899,-99.892 0,-10.59 7.908,-25.178 23.799,-25.178 24.484,0 27.988,16.309 27.988,16.309 0,0 -7.332,1.445 -7.332,16.531 0,24.887 44.457,90.42 44.457,113.471 0,16.22 -10.494,22.149 -22.898,22.149"
             style="fill:#000000;fill-opacity:1;fill-rule:nonzero;stroke:none"
             id="path36" />
        </g>
        <g
           id="g38"
           transform="translate(734.7637,737.9561)">
          <path
             d="m 0,0 c 0,21.759 53,79.944 53,96.905 0,12.014 -15.752,15.074 -20.021,15.074 -29.916,0 -54.887,-76.556 -54.887,-90.22 C -21.908,14.929 -17.67,0 0,0"
             style="fill:#000000;fill-opacity:1;fill-rule:nonzero;stroke:none"
             id="path40" />
        </g>
        <g
           id="g42"
           transform="translate(892.082,546.3984)">
          <path
             d="M 0,0 C 21.318,0 49.207,55.022 70.572,92.078 57.963,48.992 66.018,9.063 90.523,-0.184 117.254,-10.268 153.406,19.95 171.277,67.313 L 153.113,77.699 C 140.535,44.357 121.152,20.793 109.826,25.067 c -11.33,4.274 -10.314,34.768 2.266,68.111 12.582,33.343 22.709,52.635 34.816,52.635 15.862,0 -9.976,-55.418 -9.976,-55.418 l 15.312,-4.476 c 0,0 44.908,88.042 -7.953,88.042 -20.143,0 -37.691,-11.332 -52.557,-34.606 l -0.004,0.01 c 0,0 -62.826,-97.215 -67.23,-97.215 -6.539,0 40.613,81.114 40.613,104.163 0,16.222 -10.492,22.152 -22.894,22.152 H 25.033 C 25.033,150.738 -23.793,63.503 -23.793,25.182 -23.793,14.592 -15.887,0 0,0"
             style="fill:#000000;fill-opacity:1;fill-rule:nonzero;stroke:none"
             id="path44" />
        </g>
        <g
           id="g46"
           transform="translate(960.25,737.9561)">
          <path
             d="m 0,0 c 0,21.759 53,79.944 53,96.905 0,12.014 -15.754,15.074 -20.023,15.074 -29.914,0 -54.887,-76.556 -54.887,-90.22 C -21.91,14.929 -17.67,0 0,0"
             style="fill:#000000;fill-opacity:1;fill-rule:nonzero;stroke:none"
             id="path48" />
        </g>
        <g
           id="g50"
           transform="translate(66.1309,638.1836)">
          <path
             d="m 0,0 c 0,65.691 61.307,132.93 132.833,132.93 39.88,0 68.888,-43.508 68.888,-88.992 0,-80.096 -93.673,-164.477 -114.448,-164.477 -4.295,0 -7.507,2.507 -7.507,6.471 0,45.005 76.937,170.612 91.303,170.612 0,10.315 -14.066,17.481 -25.492,17.481 -49.077,0 -112.339,-141.824 -112.339,-194.564 0,-20.194 23.035,-37.803 43.94,-37.803 69.978,0 146.865,131.424 146.865,195.156 0,63.733 -39.586,121.526 -115.197,121.526 C 33.238,158.34 -49.49,93.024 -49.49,0 c 0,-60.961 33.659,-86.296 58.801,-86.296 10.547,0 23.927,4.488 23.927,22.288 C 33.238,-64.008 0,-65.691 0,0"
             style="fill:#000000;fill-opacity:1;fill-rule:nonzero;stroke:none"
             id="path52" />
        </g>
        <g
           id="g54"
           transform="translate(141.9453,270.1289)">
          <path
             d="m 0,0 c -8.44,0 -16.635,5.814 -16.635,20.114 0,16.317 14.358,31.786 37.558,31.786 6.036,0 12.027,-0.023 17.996,-0.055 C 24.341,20.942 11.077,0 0,0 m 241.834,422.082 c 11.329,-4.273 10.313,-34.769 -2.27,-68.113 -12.58,-33.342 -31.961,-56.906 -43.288,-52.632 -10.68,4.028 -10.384,31.358 0.221,62.409 4.128,-3.688 8.681,-5.841 12.838,-5.841 0,0 -2.073,5.575 -2.073,10.15 0,25.66 14.877,43.496 15.916,44.713 6.943,7.574 13.601,11.221 18.656,9.314 M 192.596,274.488 c 23.855,3.284 50.564,30.491 65.133,69.094 17.872,47.364 10.689,93.936 -16.038,104.018 -26.726,10.086 -62.88,-20.135 -80.75,-67.498 C 149.029,348.534 148.26,317.335 156.975,297.04 121.444,265.887 81.79,149.194 47.896,71.674 H 17.85 c -30.273,0 -62.959,-14.779 -62.959,-56.615 0,-31.927 25.734,-48.021 50.968,-48.021 23.52,0 48.813,36.361 73.75,84.329 251.133,-4.49 431.897,-36.139 431.897,-36.139 V 71.674 H 89.835 c 38.454,78.586 75.352,176.93 102.761,202.814"
             style="fill:#000000;fill-opacity:1;fill-rule:nonzero;stroke:none"
             id="path56" />
        </g>
        <g
           id="g58"
           transform="translate(873.1973,388.1494)">
          <path
             d="m 0,0 c -2.123,0 -4.641,0.92 -4.641,5.458 0,19.574 54.454,117.407 75.633,117.407 C 103.701,122.865 21.438,0 0,0 m 92.363,5.619 c -15.295,0 39.832,91.428 39.832,114.475 0,23.047 -23.56,22.149 -37.55,22.149 0,-5.812 -1.391,-12.504 -3.663,-19.773 -3.265,13.095 -11.127,20.237 -29.871,20.237 -48.189,0 -100.58,-81.489 -100.58,-139.526 0,-11.479 11,-28.938 34.828,-28.938 14.723,0 36.071,24.034 55.079,50.425 -1.78,-6.661 -2.84,-12.947 -2.84,-18.658 0,-10.594 7.568,-32.227 27.507,-32.227 61.75,0 94.196,101.173 94.196,101.173 l -16.141,8.122 c 0,0 -32.92,-77.459 -60.797,-77.459"
             style="fill:#000000;fill-opacity:1;fill-rule:nonzero;stroke:none"
             id="path60" />
        </g>
        <g
           id="g62"
           transform="translate(703.5566,261.6855)">
          <path
             d="m 0,0 c -8.098,0 -14.238,5.576 -14.238,19.298 0,15.653 13.775,36.14 36.033,36.14 4.721,0 10.15,-0.19 16.141,-0.541 C 23.043,22.653 9.104,0 0,0 m 14.066,126.464 c -2.123,0 -4.64,0.92 -4.64,5.458 0,19.574 54.453,117.407 75.633,117.407 32.709,0 -49.555,-122.865 -70.993,-122.865 m 132.196,120.094 c 0,23.046 -23.561,22.149 -37.551,22.149 0,-4.204 -1.213,-11.473 -3.389,-20.967 -3.086,13.85 -10.842,21.431 -30.144,21.431 -31.149,0 -64.047,-34.047 -83.422,-73.799 -16.51,-24.903 -35.658,-52.972 -38.11,-52.972 -6.542,0 40.614,81.111 40.614,104.162 0,16.22 -10.494,22.149 -22.899,22.149 h -17.185 c 0,-17.727 -48.826,-104.958 -48.826,-143.278 0,-10.594 7.906,-25.186 23.796,-25.186 14.307,0 31.577,24.793 47.846,52.301 -1.556,-7.867 -2.396,-15.572 -2.396,-22.903 0,-11.479 11.002,-28.938 34.83,-28.938 21.254,0 56.322,50.093 78.213,85.059 C 76.199,150.145 61.443,109.345 46.857,75.063 L 18.842,74.406 c -23.403,0 -60.397,-19.823 -60.397,-59.961 0,-24.951 12.541,-46.066 36.022,-46.066 23.828,0 50.672,36.908 75.086,83.827 77.162,-8.079 192.451,-28.535 192.451,-28.535 V 80.117 L 81.297,75.872 c 36.49,76.906 64.965,167.426 64.965,170.686"
             style="fill:#000000;fill-opacity:1;fill-rule:nonzero;stroke:none"
             id="path64" />
        </g>
      </g>
    </g>
  </g>
</svg>
